<svg width="17" height="17" viewBox="0 0 17 17" fill="none" xmlns="http://www.w3.org/2000/svg">
<path d="M16.25 8.125C16.25 8.82812 15.6641 9.41406 15 9.41406H9.375V15.0391C9.375 15.7031 8.78906 16.25 8.125 16.25C7.42188 16.25 6.875 15.7031 6.875 15.0391V9.41406H1.25C0.546875 9.41406 0 8.82812 0 8.125C0 7.46094 0.546875 6.91406 1.25 6.91406H6.875V1.28906C6.875 0.585938 7.42188 0 8.125 0C8.78906 0 9.375 0.585938 9.375 1.28906V6.91406H15C15.6641 6.875 16.25 7.46094 16.25 8.125Z" fill="white"/>
</svg>
