<svg width="20" height="20" viewBox="0 0 20 20" fill="none" xmlns="http://www.w3.org/2000/svg">
<g clip-path="url(#clip0_2043_1532)">
<path d="M8.55078 17.4884C8.69697 17.7416 8.90723 17.9518 9.16042 18.098C9.4136 18.2442 9.70081 18.3211 9.99316 18.3211C10.2855 18.3211 10.5727 18.2442 10.8259 18.098C11.0791 17.9518 11.2894 17.7416 11.4355 17.4884" stroke="#A1A1AA" stroke-width="1.66557" stroke-linecap="round" stroke-linejoin="round"/>
<path d="M2.7166 12.7632C2.60781 12.8824 2.53602 13.0307 2.50995 13.19C2.48389 13.3493 2.50468 13.5127 2.56979 13.6604C2.6349 13.8081 2.74153 13.9337 2.87671 14.0219C3.01189 14.1101 3.16979 14.1572 3.3312 14.1573H16.6557C16.8171 14.1573 16.9751 14.1105 17.1103 14.0225C17.2456 13.9344 17.3524 13.809 17.4176 13.6614C17.4829 13.5138 17.5039 13.3504 17.4781 13.1911C17.4522 13.0318 17.3806 12.8834 17.272 12.764C16.1644 11.6223 14.9902 10.4089 14.9902 6.66223C14.9902 5.33702 14.4637 4.06609 13.5267 3.12903C12.5896 2.19196 11.3187 1.66553 9.99347 1.66553C8.66826 1.66553 7.39733 2.19196 6.46026 3.12903C5.5232 4.06609 4.99677 5.33702 4.99677 6.66223C4.99677 10.4089 3.82171 11.6223 2.7166 12.7632Z" stroke="#A1A1AA" stroke-width="1.66557" stroke-linecap="round" stroke-linejoin="round"/>
</g>
<defs>
<clipPath id="clip0_2043_1532">
<rect width="19.9868" height="19.9868" fill="white"/>
</clipPath>
</defs>
</svg>
