<svg width="18" height="16" viewBox="0 0 18 16" fill="none" xmlns="http://www.w3.org/2000/svg">
<mask id="path-1-outside-1_88_3058" maskUnits="userSpaceOnUse" x="0" y="0" width="18" height="16" fill="black">
<rect fill="white" width="18" height="16"/>
<path d="M5.65625 2.03125C5.84375 1.4375 6.40625 1 7.0625 1H10.9062C11.5625 1 12.125 1.4375 12.3125 2.03125L12.6562 3H15C16.0938 3 17 3.90625 17 5V13C17 14.125 16.0938 15 15 15H3C1.875 15 1 14.125 1 13V5C1 3.90625 1.875 3 3 3H5.3125L5.65625 2.03125ZM9 6C7.90625 6 6.9375 6.59375 6.375 7.5C5.84375 8.4375 5.84375 9.59375 6.375 10.5C6.9375 11.4375 7.90625 12 9 12C10.0625 12 11.0312 11.4375 11.5938 10.5C12.125 9.59375 12.125 8.4375 11.5938 7.5C11.0312 6.59375 10.0625 6 9 6Z"/>
</mask>
<path d="M5.65625 2.03125L6.59868 2.36566L6.60455 2.34912L6.60983 2.33238L5.65625 2.03125ZM12.3125 2.03125L11.3589 2.33238L11.3642 2.34912L11.3701 2.36566L12.3125 2.03125ZM12.6562 3L11.7138 3.33441L11.95 4H12.6562V3ZM5.3125 3V4H6.01875L6.25493 3.33441L5.3125 3ZM6.375 7.5L5.52536 6.97264L5.51483 6.98961L5.50498 7.00699L6.375 7.5ZM6.375 10.5L5.51226 11.0057L5.51751 11.0145L6.375 10.5ZM11.5938 10.5L12.4513 11.0145L12.4564 11.0057L11.5938 10.5ZM11.5938 7.5L12.4638 7.00699L12.4539 6.98961L12.4434 6.97264L11.5938 7.5ZM5.65625 2.03125L6.60983 2.33238C6.67021 2.14119 6.8565 2 7.0625 2V1V0C5.956 0 5.01729 0.733812 4.70267 1.73012L5.65625 2.03125ZM7.0625 1V2H10.9062V1V0H7.0625V1ZM10.9062 1V2C11.1123 2 11.2985 2.14119 11.3589 2.33238L12.3125 2.03125L13.2661 1.73012C12.9515 0.733812 12.0127 0 10.9062 0V1ZM12.3125 2.03125L11.3701 2.36566L11.7138 3.33441L12.6562 3L13.5987 2.66559L13.2549 1.69684L12.3125 2.03125ZM12.6562 3V4H15V3V2H12.6562V3ZM15 3V4C15.5415 4 16 4.45854 16 5H17H18C18 3.35396 16.646 2 15 2V3ZM17 5H16V13H17H18V5H17ZM17 13H16C16 13.5626 15.5517 14 15 14V15V16C16.6358 16 18 14.6875 18 13H17ZM15 15V14H3V15V16H15V15ZM3 15V14C2.42728 14 2 13.5727 2 13H1H0C0 14.6773 1.32272 16 3 16V15ZM1 13H2V5H1H0V13H1ZM1 5H2C2 4.44831 2.43745 4 3 4V3V2C1.31255 2 0 3.36419 0 5H1ZM3 3V4H5.3125V3V2H3V3ZM5.3125 3L6.25493 3.33441L6.59868 2.36566L5.65625 2.03125L4.71382 1.69684L4.37007 2.66559L5.3125 3ZM9 6V5C7.53056 5 6.25399 5.79873 5.52536 6.97264L6.375 7.5L7.22464 8.02736C7.62101 7.38877 8.28194 7 9 7V6ZM6.375 7.5L5.50498 7.00699C4.80344 8.24499 4.79496 9.78202 5.5123 11.0057L6.375 10.5L7.2377 9.99428C6.89254 9.40548 6.88406 8.63001 7.24502 7.99301L6.375 7.5ZM6.375 10.5L5.51751 11.0145C6.25611 12.2455 7.5461 13 9 13V12V11C8.2664 11 7.61889 10.6295 7.23249 9.9855L6.375 10.5ZM9 12V13C10.4284 13 11.7157 12.2405 12.4512 11.0145L11.5938 10.5L10.7363 9.9855C10.3468 10.6345 9.69664 11 9 11V12ZM11.5938 10.5L12.4564 11.0057C13.1738 9.78202 13.1653 8.24499 12.4638 7.00699L11.5938 7.5L10.7237 7.99301C11.0847 8.63001 11.0762 9.40548 10.7311 9.99428L11.5938 10.5ZM11.5938 7.5L12.4434 6.97264C11.7179 5.80386 10.4438 5 9 5V6V7C9.68123 7 10.3446 7.38364 10.7441 8.02736L11.5938 7.5Z" fill="white" mask="url(#path-1-outside-1_88_3058)"/>
</svg>
