<svg width="16" height="16" viewBox="0 0 16 16" fill="none" xmlns="http://www.w3.org/2000/svg">
<g clip-path="url(#clip0_183_593)">
<path d="M14.6572 11.2727V13.2713C14.6579 13.4569 14.6199 13.6405 14.5456 13.8105C14.4713 13.9805 14.3622 14.1332 14.2255 14.2586C14.0888 14.384 13.9274 14.4795 13.7516 14.539C13.5759 14.5984 13.3896 14.6205 13.2048 14.6038C11.1547 14.381 9.18548 13.6805 7.45529 12.5585C5.84558 11.5356 4.48082 10.1708 3.45795 8.56113C2.33201 6.82308 1.63132 4.84425 1.41263 2.78495C1.39599 2.60072 1.41788 2.41504 1.47693 2.23973C1.53597 2.06442 1.63087 1.90333 1.75558 1.76671C1.8803 1.63009 2.03209 1.52093 2.20131 1.44619C2.37052 1.37145 2.55344 1.33276 2.73842 1.33258H4.7371C5.06042 1.3294 5.37387 1.4439 5.61902 1.65473C5.86417 1.86556 6.0243 2.15833 6.06955 2.47849C6.15391 3.11811 6.31035 3.74614 6.5359 4.35058C6.62554 4.58904 6.64494 4.8482 6.59181 5.09734C6.53867 5.34649 6.41523 5.57518 6.2361 5.75632L5.39 6.60242C6.33841 8.27035 7.71942 9.65137 9.38735 10.5998L10.2335 9.75367C10.4146 9.57455 10.6433 9.4511 10.8924 9.39797C11.1416 9.34483 11.4007 9.36423 11.6392 9.45387C12.2436 9.67942 12.8717 9.83587 13.5113 9.92023C13.8349 9.96588 14.1305 10.1289 14.3418 10.3783C14.553 10.6276 14.6653 10.9459 14.6572 11.2727Z" stroke="#8B5CF6" stroke-width="1.33245" stroke-linecap="round" stroke-linejoin="round"/>
</g>
<defs>
<clipPath id="clip0_183_593">
<rect width="15.9894" height="15.9894" fill="white"/>
</clipPath>
</defs>
</svg>
