<svg width="20" height="20" viewBox="0 0 20 20" fill="none" xmlns="http://www.w3.org/2000/svg">
<path d="M7.0788 12.0755C7.63097 12.0755 8.16053 11.8562 8.55097 11.4658C8.94141 11.0753 9.16076 10.5458 9.16076 9.99359C9.16076 8.84434 8.74437 8.32802 8.32798 7.49524C7.43524 5.71058 8.14144 4.11913 9.99355 2.49854C10.4099 4.58049 11.6591 6.57917 13.3247 7.91163C14.9902 9.24408 15.823 10.8264 15.823 12.4919C15.823 13.2575 15.6722 14.0155 15.3793 14.7228C15.0863 15.43 14.6569 16.0727 14.1156 16.614C13.5743 17.1553 12.9317 17.5847 12.2244 17.8777C11.5171 18.1706 10.7591 18.3214 9.99355 18.3214C9.22801 18.3214 8.46996 18.1706 7.7627 17.8777C7.05543 17.5847 6.4128 17.1553 5.87148 16.614C5.33016 16.0727 4.90076 15.43 4.60781 14.7228C4.31485 14.0155 4.16406 13.2575 4.16406 12.4919C4.16406 11.5317 4.52466 10.5815 4.99685 9.99359C4.99685 10.5458 5.21619 11.0753 5.60664 11.4658C5.99708 11.8562 6.52663 12.0755 7.0788 12.0755Z" stroke="#FE9A00" stroke-width="1.66557" stroke-linecap="round" stroke-linejoin="round"/>
</svg>
