<svg width="24" height="24" viewBox="0 0 24 24" fill="none" xmlns="http://www.w3.org/2000/svg">
<path d="M16.2293 7.75488L14.4265 13.1623C14.3284 13.4567 14.1631 13.7242 13.9436 13.9436C13.7242 14.1631 13.4567 14.3284 13.1623 14.4265L7.75488 16.2293L9.5577 10.8219C9.65581 10.5275 9.82113 10.26 10.0406 10.0406C10.26 9.82113 10.5275 9.65581 10.8219 9.5577L16.2293 7.75488Z" stroke="#525252" stroke-width="1.99868" stroke-linecap="round" stroke-linejoin="round"/>
<path d="M11.992 21.9856C17.5112 21.9856 21.9854 17.5114 21.9854 11.9922C21.9854 6.47298 17.5112 1.99878 11.992 1.99878C6.47274 1.99878 1.99854 6.47298 1.99854 11.9922C1.99854 17.5114 6.47274 21.9856 11.992 21.9856Z" stroke="#525252" stroke-width="1.99868" stroke-linecap="round" stroke-linejoin="round"/>
</svg>
