<svg width="16" height="16" viewBox="0 0 16 16" fill="none" xmlns="http://www.w3.org/2000/svg">
<g clip-path="url(#clip0_255_976)">
<path d="M7.99463 1.33203V14.6565" stroke="#22C55E" stroke-width="1.33245" stroke-linecap="round" stroke-linejoin="round"/>
<path d="M11.326 3.33105H6.32935C5.71092 3.33105 5.11782 3.57672 4.68052 4.01402C4.24323 4.45131 3.99756 5.04441 3.99756 5.66284C3.99756 6.28127 4.24323 6.87437 4.68052 7.31166C5.11782 7.74896 5.71092 7.99463 6.32935 7.99463H9.66047C10.2789 7.99463 10.872 8.2403 11.3093 8.67759C11.7466 9.11489 11.9923 9.70799 11.9923 10.3264C11.9923 10.9448 11.7466 11.5379 11.3093 11.9752C10.872 12.4125 10.2789 12.6582 9.66047 12.6582H3.99756" stroke="#22C55E" stroke-width="1.33245" stroke-linecap="round" stroke-linejoin="round"/>
</g>
<defs>
<clipPath id="clip0_255_976">
<rect width="15.9894" height="15.9894" fill="white"/>
</clipPath>
</defs>
</svg>
