<svg width="16" height="16" viewBox="0 0 16 16" fill="none" xmlns="http://www.w3.org/2000/svg">
<path d="M8.39524 14.5231C9.63442 13.4532 13.3246 9.98878 13.3246 6.66232C13.3246 5.24877 12.7631 3.89311 11.7636 2.89358C10.764 1.89405 9.40839 1.33252 7.99484 1.33252C6.58129 1.33252 5.22563 1.89405 4.2261 2.89358C3.22657 3.89311 2.66504 5.24877 2.66504 6.66232C2.66504 9.98878 6.35526 13.4532 7.59444 14.5231C7.70988 14.6099 7.8504 14.6569 7.99484 14.6569C8.13928 14.6569 8.2798 14.6099 8.39524 14.5231Z" stroke="#8B5CF6" stroke-width="1.33245" stroke-linecap="round" stroke-linejoin="round"/>
<path d="M7.99477 8.66092C9.09861 8.66092 9.99344 7.76609 9.99344 6.66225C9.99344 5.55841 9.09861 4.66357 7.99477 4.66357C6.89093 4.66357 5.99609 5.55841 5.99609 6.66225C5.99609 7.76609 6.89093 8.66092 7.99477 8.66092Z" stroke="#8B5CF6" stroke-width="1.33245" stroke-linecap="round" stroke-linejoin="round"/>
</svg>
