<svg width="16" height="16" viewBox="0 0 16 16" fill="none" xmlns="http://www.w3.org/2000/svg">
<path d="M5.66284 9.66037C6.10458 9.66037 6.52822 9.48489 6.84057 9.17254C7.15293 8.86018 7.3284 8.43654 7.3284 7.9948C7.3284 7.07541 6.99529 6.66235 6.66218 5.99613C5.94799 4.56841 6.51295 3.29525 7.99463 1.99878C8.32774 3.66434 9.32708 5.26328 10.6595 6.32924C11.992 7.3952 12.6582 8.66103 12.6582 9.99348C12.6582 10.6059 12.5376 11.2123 12.3032 11.7782C12.0688 12.344 11.7253 12.8581 11.2923 13.2911C10.8592 13.7242 10.3451 14.0677 9.7793 14.3021C9.21349 14.5364 8.60706 14.6571 7.99463 14.6571C7.3822 14.6571 6.77577 14.5364 6.20996 14.3021C5.64415 14.0677 5.13004 13.7242 4.69698 13.2911C4.26393 12.8581 3.92041 12.344 3.68605 11.7782C3.45168 11.2123 3.33105 10.6059 3.33105 9.99348C3.33105 9.22532 3.61953 8.46516 3.99728 7.9948C3.99728 8.43654 4.17276 8.86018 4.48511 9.17254C4.79747 9.48489 5.22111 9.66037 5.66284 9.66037Z" stroke="#F59E0B" stroke-width="1.33245" stroke-linecap="round" stroke-linejoin="round"/>
</svg>
