<svg width="16" height="16" viewBox="0 0 16 16" fill="none" xmlns="http://www.w3.org/2000/svg">
<g clip-path="url(#clip0_268_1748)">
<path d="M7.99477 14.6565C11.6742 14.6565 14.657 11.6737 14.657 7.99428C14.657 4.31482 11.6742 1.33203 7.99477 1.33203C4.31531 1.33203 1.33252 4.31482 1.33252 7.99428C1.33252 11.6737 4.31531 14.6565 7.99477 14.6565Z" stroke="#F59E0B" stroke-width="1.33245" stroke-linecap="round" stroke-linejoin="round"/>
<path d="M6.05615 5.99559C6.21278 5.55033 6.52195 5.17487 6.92888 4.93571C7.33581 4.69656 7.81425 4.60913 8.27946 4.68893C8.74467 4.76873 9.16663 5.01059 9.47061 5.37169C9.77458 5.73278 9.94095 6.18981 9.94024 6.66181C9.94024 7.99426 7.94157 8.66049 7.94157 8.66049" stroke="#F59E0B" stroke-width="1.33245" stroke-linecap="round" stroke-linejoin="round"/>
<path d="M7.99463 11.3262H8.00129" stroke="#F59E0B" stroke-width="1.33245" stroke-linecap="round" stroke-linejoin="round"/>
</g>
<defs>
<clipPath id="clip0_268_1748">
<rect width="15.9894" height="15.9894" fill="white"/>
</clipPath>
</defs>
</svg>
