<svg width="16" height="16" viewBox="0 0 16 16" fill="none" xmlns="http://www.w3.org/2000/svg">
<g clip-path="url(#clip0_275_1961)">
<path d="M8.39524 14.5226C9.63442 13.4527 13.3246 9.98829 13.3246 6.66183C13.3246 5.24828 12.7631 3.89263 11.7636 2.89309C10.764 1.89356 9.40839 1.33203 7.99484 1.33203C6.58129 1.33203 5.22563 1.89356 4.2261 2.89309C3.22657 3.89263 2.66504 5.24828 2.66504 6.66183C2.66504 9.98829 6.35526 13.4527 7.59444 14.5226C7.70988 14.6094 7.8504 14.6564 7.99484 14.6564C8.13928 14.6564 8.2798 14.6094 8.39524 14.5226Z" stroke="#EC4899" stroke-width="1.33245" stroke-linecap="round" stroke-linejoin="round"/>
<path d="M7.99477 8.66141C9.09861 8.66141 9.99344 7.76658 9.99344 6.66274C9.99344 5.5589 9.09861 4.66406 7.99477 4.66406C6.89093 4.66406 5.99609 5.5589 5.99609 6.66274C5.99609 7.76658 6.89093 8.66141 7.99477 8.66141Z" stroke="#EC4899" stroke-width="1.33245" stroke-linecap="round" stroke-linejoin="round"/>
</g>
<defs>
<clipPath id="clip0_275_1961">
<rect width="15.9894" height="15.9894" fill="white"/>
</clipPath>
</defs>
</svg>
