<svg width="32" height="32" viewBox="0 0 32 32" fill="none" xmlns="http://www.w3.org/2000/svg">
<path d="M0 15.999C0 7.163 7.163 0 15.999 0C24.835 0 31.998 7.163 31.998 15.999C31.998 24.835 24.835 31.998 15.999 31.998C7.163 31.998 0 24.835 0 15.999Z" fill="#FB2C36" fill-opacity="0.2"/>
<path d="M14.0003 21.994H11.3354C10.982 21.994 10.6431 21.8536 10.3932 21.6037C10.1433 21.3539 10.0029 21.0149 10.0029 20.6616V11.3344C10.0029 10.981 10.1433 10.6421 10.3932 10.3922C10.6431 10.1423 10.982 10.002 11.3354 10.002H14.0003" stroke="#FF6467" stroke-width="1.33245" stroke-linecap="round" stroke-linejoin="round"/>
<path d="M18.6641 19.3302L21.9952 15.9991L18.6641 12.668" stroke="#FF6467" stroke-width="1.33245" stroke-linecap="round" stroke-linejoin="round"/>
<path d="M21.9952 15.998H14.0005" stroke="#FF6467" stroke-width="1.33245" stroke-linecap="round" stroke-linejoin="round"/>
</svg>
