<svg width="16" height="16" viewBox="0 0 16 16" fill="none" xmlns="http://www.w3.org/2000/svg">
<path d="M5.99609 11.9919V3.33099L13.9908 1.99854V10.6595" stroke="#8B5CF6" stroke-width="1.33245" stroke-linecap="round" stroke-linejoin="round"/>
<path d="M3.99721 13.9905C5.10105 13.9905 5.99589 13.0957 5.99589 11.9918C5.99589 10.888 5.10105 9.99316 3.99721 9.99316C2.89337 9.99316 1.99854 10.888 1.99854 11.9918C1.99854 13.0957 2.89337 13.9905 3.99721 13.9905Z" stroke="#8B5CF6" stroke-width="1.33245" stroke-linecap="round" stroke-linejoin="round"/>
<path d="M11.9918 12.6585C13.0957 12.6585 13.9905 11.7636 13.9905 10.6598C13.9905 9.55597 13.0957 8.66113 11.9918 8.66113C10.888 8.66113 9.99316 9.55597 9.99316 10.6598C9.99316 11.7636 10.888 12.6585 11.9918 12.6585Z" stroke="#8B5CF6" stroke-width="1.33245" stroke-linecap="round" stroke-linejoin="round"/>
</svg>
