<svg width="30" height="30" viewBox="0 0 30 30" fill="none" xmlns="http://www.w3.org/2000/svg">
<path d="M6.25 21.25C6.25 21.9404 6.80964 22.5 7.5 22.5H22.5C23.1904 22.5 23.75 21.9404 23.75 21.25V13.7887C23.75 8.935 19.8325 5 15 5C10.1675 5 6.25 8.935 6.25 13.7887V21.25ZM15 2.5C21.2125 2.5 26.25 7.55375 26.25 13.7887V23.75C26.25 24.4404 25.6904 25 25 25H5C4.30964 25 3.75 24.4404 3.75 23.75V13.7887C3.75 7.55375 8.7875 2.5 15 2.5ZM12.1217 27.467C11.8529 26.8311 12.4346 26.25 13.125 26.25H16.875C17.5654 26.25 18.1471 26.8311 17.8783 27.467C17.723 27.8344 17.4972 28.1722 17.2097 28.4597C16.6237 29.0458 15.8288 29.375 15 29.375C14.1712 29.375 13.3763 29.0458 12.7903 28.4597C12.5028 28.1722 12.277 27.8344 12.1217 27.467Z" fill="black"/>
</svg>
