<svg width="10" height="10" viewBox="0 0 10 10" fill="none" xmlns="http://www.w3.org/2000/svg">
<g clip-path="url(#clip0_277_10609)">
<path d="M6.65594 8.73595V7.90396C6.65594 7.46265 6.48063 7.03941 6.16857 6.72736C5.85652 6.4153 5.43328 6.23999 4.99196 6.23999H2.496C2.05469 6.23999 1.63145 6.4153 1.3194 6.72736C1.00734 7.03941 0.832031 7.46265 0.832031 7.90396V8.73595" stroke="#22C55E" stroke-width="0.831987" stroke-linecap="round" stroke-linejoin="round"/>
<path d="M3.74405 4.57599C4.66304 4.57599 5.40802 3.83101 5.40802 2.91202C5.40802 1.99303 4.66304 1.24805 3.74405 1.24805C2.82506 1.24805 2.08008 1.99303 2.08008 2.91202C2.08008 3.83101 2.82506 4.57599 3.74405 4.57599Z" stroke="#22C55E" stroke-width="0.831987" stroke-linecap="round" stroke-linejoin="round"/>
<path d="M7.90381 3.32788V5.82384" stroke="#22C55E" stroke-width="0.831987" stroke-linecap="round" stroke-linejoin="round"/>
<path d="M9.15172 4.57593H6.65576" stroke="#22C55E" stroke-width="0.831987" stroke-linecap="round" stroke-linejoin="round"/>
</g>
<defs>
<clipPath id="clip0_277_10609">
<rect width="9.98384" height="9.98384" fill="white"/>
</clipPath>
</defs>
</svg>
