<svg width="20" height="20" viewBox="0 0 20 20" fill="none" xmlns="http://www.w3.org/2000/svg">
<path d="M1.66553 7.49495C2.32813 7.49495 2.9636 7.75817 3.43213 8.2267C3.90066 8.69523 4.16388 9.3307 4.16388 9.9933C4.16388 10.6559 3.90066 11.2914 3.43213 11.7599C2.9636 12.2284 2.32813 12.4917 1.66553 12.4917V14.1572C1.66553 14.599 1.84101 15.0226 2.15336 15.335C2.46571 15.6473 2.88936 15.8228 3.33109 15.8228H16.6556C17.0974 15.8228 17.521 15.6473 17.8334 15.335C18.1457 15.0226 18.3212 14.599 18.3212 14.1572V12.4917C17.6586 12.4917 17.0231 12.2284 16.5546 11.7599C16.0861 11.2914 15.8228 10.6559 15.8228 9.9933C15.8228 9.3307 16.0861 8.69523 16.5546 8.2267C17.0231 7.75817 17.6586 7.49495 18.3212 7.49495V5.82939C18.3212 5.38765 18.1457 4.96401 17.8334 4.65165C17.521 4.3393 17.0974 4.16382 16.6556 4.16382H3.33109C2.88936 4.16382 2.46571 4.3393 2.15336 4.65165C1.84101 4.96401 1.66553 5.38765 1.66553 5.82939V7.49495Z" stroke="#404040" stroke-width="1.66557" stroke-linecap="round" stroke-linejoin="round"/>
<path d="M10.8262 4.16382V5.82939" stroke="#404040" stroke-width="1.66557" stroke-linecap="round" stroke-linejoin="round"/>
<path d="M10.8262 14.1572V15.8228" stroke="#404040" stroke-width="1.66557" stroke-linecap="round" stroke-linejoin="round"/>
<path d="M10.8262 9.16064V10.8262" stroke="#404040" stroke-width="1.66557" stroke-linecap="round" stroke-linejoin="round"/>
</svg>
