<svg width="10" height="10" viewBox="0 0 10 10" fill="none" xmlns="http://www.w3.org/2000/svg">
<g clip-path="url(#clip0_277_10684)">
<path d="M5.24202 9.06828C6.01577 8.4002 8.31996 6.23703 8.31996 4.15998C8.31996 3.27735 7.96933 2.43088 7.34522 1.80676C6.72111 1.18265 5.87464 0.832031 4.99201 0.832031C4.10938 0.832031 3.26291 1.18265 2.6388 1.80676C2.01468 2.43088 1.66406 3.27735 1.66406 4.15998C1.66406 6.23703 3.96825 8.4002 4.742 9.06828C4.81408 9.12249 4.90182 9.15179 4.99201 9.15179C5.0822 9.15179 5.16994 9.12249 5.24202 9.06828Z" stroke="#A855F7" stroke-width="0.831987" stroke-linecap="round" stroke-linejoin="round"/>
<path d="M4.99212 5.40783C5.68136 5.40783 6.2401 4.84909 6.2401 4.15985C6.2401 3.4706 5.68136 2.91187 4.99212 2.91187C4.30288 2.91187 3.74414 3.4706 3.74414 4.15985C3.74414 4.84909 4.30288 5.40783 4.99212 5.40783Z" stroke="#A855F7" stroke-width="0.831987" stroke-linecap="round" stroke-linejoin="round"/>
</g>
<defs>
<clipPath id="clip0_277_10684">
<rect width="9.98384" height="9.98384" fill="white"/>
</clipPath>
</defs>
</svg>
