<svg width="20" height="20" viewBox="0 0 20 20" fill="none" xmlns="http://www.w3.org/2000/svg">
<g clip-path="url(#clip0_277_10650)">
<path d="M7.0788 12.0753C7.63097 12.0753 8.16053 11.856 8.55097 11.4655C8.94141 11.0751 9.16076 10.5455 9.16076 9.99334C9.16076 8.8441 8.74437 8.32777 8.32798 7.49499C7.43524 5.71034 8.14144 4.11889 9.99355 2.49829C10.4099 4.58025 11.6591 6.57893 13.3247 7.91138C14.9902 9.24384 15.823 10.8261 15.823 12.4917C15.823 13.2572 15.6722 14.0153 15.3793 14.7225C15.0863 15.4298 14.6569 16.0724 14.1156 16.6138C13.5743 17.1551 12.9317 17.5845 12.2244 17.8774C11.5171 18.1704 10.7591 18.3212 9.99355 18.3212C9.22801 18.3212 8.46996 18.1704 7.7627 17.8774C7.05543 17.5845 6.4128 17.1551 5.87148 16.6138C5.33016 16.0724 4.90076 15.4298 4.60781 14.7225C4.31485 14.0153 4.16406 13.2572 4.16406 12.4917C4.16406 11.5315 4.52466 10.5813 4.99685 9.99334C4.99685 10.5455 5.21619 11.0751 5.60664 11.4655C5.99708 11.856 6.52663 12.0753 7.0788 12.0753Z" stroke="#404040" stroke-width="1.66557" stroke-linecap="round" stroke-linejoin="round"/>
</g>
<defs>
<clipPath id="clip0_277_10650">
<rect width="19.9868" height="19.9868" fill="white"/>
</clipPath>
</defs>
</svg>
