<svg width="16" height="16" viewBox="0 0 16 16" fill="none" xmlns="http://www.w3.org/2000/svg">
<path d="M7.99463 13.3242H13.9907" stroke="#A1A1AA" stroke-width="1.33245" stroke-linecap="round" stroke-linejoin="round"/>
<path d="M10.9103 2.41226C11.1755 2.14704 11.5352 1.99805 11.9103 1.99805C12.2854 1.99805 12.6451 2.14704 12.9103 2.41226C13.1755 2.67748 13.3245 3.03719 13.3245 3.41227C13.3245 3.78734 13.1755 4.14705 12.9103 4.41227L4.90892 12.4143C4.75042 12.5728 4.5545 12.6887 4.33929 12.7514L2.4259 13.3097C2.36857 13.3264 2.3078 13.3274 2.24995 13.3126C2.1921 13.2978 2.1393 13.2677 2.09708 13.2255C2.05485 13.1832 2.02475 13.1304 2.00993 13.0726C1.99511 13.0147 1.99612 12.954 2.01284 12.8966L2.57113 10.9832C2.63391 10.7683 2.74985 10.5726 2.90824 10.4143L10.9103 2.41226Z" stroke="#A1A1AA" stroke-width="1.33245" stroke-linecap="round" stroke-linejoin="round"/>
</svg>
