<svg width="16" height="16" viewBox="0 0 16 16" fill="none" xmlns="http://www.w3.org/2000/svg">
<path d="M10.6597 13.9905V12.6581C10.6597 11.9513 10.3789 11.2735 9.87914 10.7737C9.37937 10.2739 8.70155 9.99316 7.99477 9.99316H3.99742C3.29064 9.99316 2.61282 10.2739 2.11305 10.7737C1.61329 11.2735 1.33252 11.9513 1.33252 12.6581V13.9905" stroke="#F59E0B" stroke-width="1.33245" stroke-linecap="round" stroke-linejoin="round"/>
<path d="M5.99595 7.32834C7.46774 7.32834 8.66085 6.13522 8.66085 4.66344C8.66085 3.19165 7.46774 1.99854 5.99595 1.99854C4.52417 1.99854 3.33105 3.19165 3.33105 4.66344C3.33105 6.13522 4.52417 7.32834 5.99595 7.32834Z" stroke="#F59E0B" stroke-width="1.33245" stroke-linecap="round" stroke-linejoin="round"/>
<path d="M14.6569 13.9908V12.6584C14.6564 12.0679 14.4599 11.4943 14.0982 11.0277C13.7364 10.561 13.2299 10.2277 12.6582 10.0801" stroke="#F59E0B" stroke-width="1.33245" stroke-linecap="round" stroke-linejoin="round"/>
<path d="M10.6597 2.08545C11.2329 2.23222 11.741 2.5656 12.1038 3.03303C12.4666 3.50046 12.6636 4.07535 12.6636 4.66707C12.6636 5.25879 12.4666 5.83368 12.1038 6.30111C11.741 6.76854 11.2329 7.10192 10.6597 7.24869" stroke="#F59E0B" stroke-width="1.33245" stroke-linecap="round" stroke-linejoin="round"/>
</svg>
