<svg width="26" height="26" viewBox="0 0 26 26" fill="none" xmlns="http://www.w3.org/2000/svg">
<path d="M24.1511 1.25L16.0261 23.75C15.9712 23.8697 15.8832 23.9711 15.7724 24.0422C15.6616 24.1133 15.5327 24.1511 15.4011 24.1511C15.2694 24.1511 15.1406 24.1133 15.0298 24.0422C14.919 23.9711 14.8309 23.8697 14.7761 23.75L10.4011 15L1.65109 10.625C1.53141 10.5702 1.43 10.4821 1.3589 10.3713C1.2878 10.2605 1.25 10.1316 1.25 10C1.25 9.86836 1.2878 9.73948 1.3589 9.62869C1.43 9.51789 1.53141 9.42984 1.65109 9.375L24.1511 1.25Z" stroke="black" stroke-width="2.5" stroke-linecap="round" stroke-linejoin="round"/>
</svg>
