<svg width="16" height="16" viewBox="0 0 16 16" fill="none" xmlns="http://www.w3.org/2000/svg">
<g clip-path="url(#clip0_275_2047)">
<path d="M10.6597 13.9905V12.6581C10.6597 11.9513 10.3789 11.2735 9.87914 10.7737C9.37937 10.2739 8.70155 9.99316 7.99477 9.99316H3.99742C3.29064 9.99316 2.61282 10.2739 2.11305 10.7737C1.61329 11.2735 1.33252 11.9513 1.33252 12.6581V13.9905" stroke="#8B5CF6" stroke-width="1.33245" stroke-linecap="round" stroke-linejoin="round"/>
<path d="M5.99595 7.32882C7.46774 7.32882 8.66085 6.13571 8.66085 4.66392C8.66085 3.19214 7.46774 1.99902 5.99595 1.99902C4.52417 1.99902 3.33105 3.19214 3.33105 4.66392C3.33105 6.13571 4.52417 7.32882 5.99595 7.32882Z" stroke="#8B5CF6" stroke-width="1.33245" stroke-linecap="round" stroke-linejoin="round"/>
<path d="M14.6569 13.9908V12.6584C14.6564 12.0679 14.4599 11.4943 14.0982 11.0277C13.7364 10.561 13.2299 10.2277 12.6582 10.0801" stroke="#8B5CF6" stroke-width="1.33245" stroke-linecap="round" stroke-linejoin="round"/>
<path d="M10.6597 2.08496C11.2329 2.23173 11.741 2.56511 12.1038 3.03254C12.4666 3.49997 12.6636 4.07486 12.6636 4.66658C12.6636 5.2583 12.4666 5.8332 12.1038 6.30063C11.741 6.76806 11.2329 7.10143 10.6597 7.2482" stroke="#8B5CF6" stroke-width="1.33245" stroke-linecap="round" stroke-linejoin="round"/>
</g>
<defs>
<clipPath id="clip0_275_2047">
<rect width="15.9894" height="15.9894" fill="white"/>
</clipPath>
</defs>
</svg>
