<svg width="16" height="16" viewBox="0 0 16 16" fill="none" xmlns="http://www.w3.org/2000/svg">
<g clip-path="url(#clip0_275_1971)">
<path d="M8.38518 1.72244C8.13535 1.47254 7.79649 1.33211 7.44314 1.33203H2.66497C2.31158 1.33203 1.97267 1.47241 1.72279 1.7223C1.4729 1.97218 1.33252 2.31109 1.33252 2.66448V7.44265C1.33259 7.79601 1.47303 8.13486 1.72293 8.38469L7.52175 14.1835C7.82456 14.4844 8.23411 14.6533 8.66099 14.6533C9.08788 14.6533 9.49743 14.4844 9.80024 14.1835L14.184 9.79975C14.4849 9.49694 14.6538 9.08739 14.6538 8.66051C14.6538 8.23362 14.4849 7.82407 14.184 7.52126L8.38518 1.72244Z" stroke="#8B5CF6" stroke-width="1.33245" stroke-linecap="round" stroke-linejoin="round"/>
<path d="M4.99669 5.33029C5.18066 5.33029 5.3298 5.18115 5.3298 4.99718C5.3298 4.8132 5.18066 4.66406 4.99669 4.66406C4.81271 4.66406 4.66357 4.8132 4.66357 4.99718C4.66357 5.18115 4.81271 5.33029 4.99669 5.33029Z" fill="#8B5CF6" stroke="#8B5CF6" stroke-width="1.33245" stroke-linecap="round" stroke-linejoin="round"/>
</g>
<defs>
<clipPath id="clip0_275_1971">
<rect width="15.9894" height="15.9894" fill="white"/>
</clipPath>
</defs>
</svg>
