<svg width="16" height="16" viewBox="0 0 16 16" fill="none" xmlns="http://www.w3.org/2000/svg">
<g clip-path="url(#clip0_183_1183)">
<path d="M7.67805 1.52899C7.70724 1.47 7.75234 1.42035 7.80826 1.38563C7.86418 1.35092 7.92869 1.33252 7.9945 1.33252C8.06032 1.33252 8.12483 1.35092 8.18075 1.38563C8.23666 1.42035 8.28176 1.47 8.31096 1.52899L9.84994 4.64625C9.95132 4.85143 10.101 5.02894 10.2861 5.16354C10.4712 5.29815 10.6861 5.38584 10.9126 5.41907L14.3543 5.92274C14.4195 5.93219 14.4808 5.9597 14.5312 6.00215C14.5816 6.04461 14.6191 6.10032 14.6394 6.16298C14.6598 6.22565 14.6623 6.29276 14.6465 6.35674C14.6307 6.42072 14.5973 6.479 14.5502 6.52501L12.0611 8.94873C11.897 9.1087 11.7742 9.30615 11.7033 9.5241C11.6324 9.74206 11.6155 9.97398 11.6541 10.1999L12.2417 13.6243C12.2532 13.6895 12.2462 13.7566 12.2214 13.818C12.1966 13.8793 12.155 13.9325 12.1015 13.9714C12.0479 14.0103 11.9845 14.0334 11.9185 14.038C11.8524 14.0426 11.7865 14.0285 11.728 13.9974L8.6514 12.3798C8.44868 12.2733 8.22314 12.2177 7.99417 12.2177C7.7652 12.2177 7.53966 12.2733 7.33694 12.3798L4.26098 13.9974C4.20257 14.0283 4.13666 14.0422 4.07074 14.0375C4.00482 14.0328 3.94154 14.0098 3.88809 13.9709C3.83464 13.932 3.79318 13.8789 3.76841 13.8177C3.74364 13.7564 3.73657 13.6894 3.74799 13.6243L4.33493 10.2006C4.3737 9.97454 4.3569 9.74247 4.28599 9.52438C4.21507 9.30629 4.09216 9.10873 3.92787 8.94873L1.43885 6.52567C1.39128 6.47972 1.35757 6.42134 1.34156 6.35717C1.32555 6.293 1.32788 6.22562 1.3483 6.16271C1.36871 6.0998 1.40638 6.04389 1.45702 6.00134C1.50766 5.9588 1.56923 5.93133 1.63472 5.92207L5.07577 5.41907C5.30246 5.38609 5.51774 5.29852 5.70308 5.1639C5.88842 5.02928 6.03827 4.85163 6.13973 4.64625L7.67805 1.52899Z" fill="#F59E0B" stroke="#F59E0B" stroke-width="1.33245" stroke-linecap="round" stroke-linejoin="round"/>
</g>
<defs>
<clipPath id="clip0_183_1183">
<rect width="15.9894" height="15.9894" fill="white"/>
</clipPath>
</defs>
</svg>
