<svg width="16" height="16" viewBox="0 0 16 16" fill="none" xmlns="http://www.w3.org/2000/svg">
<mask id="path-1-outside-1_88_3057" maskUnits="userSpaceOnUse" x="-0.99707" y="-0.76709" width="17" height="17" fill="black">
<rect fill="white" x="-0.99707" y="-0.76709" width="17" height="17"/>
<path d="M14.6201 1.14697C14.8936 1.33838 15.0303 1.6665 14.9756 1.99463L13.2256 13.3696C13.1982 13.6431 13.0342 13.8618 12.7881 13.9985C12.5693 14.1353 12.2686 14.1626 12.0225 14.0532L8.76855 12.686L6.88184 14.7095C6.63574 14.9829 6.25293 15.0649 5.9248 14.9282C5.59668 14.8188 5.37793 14.4907 5.37793 14.1079V11.8384C5.37793 11.729 5.40527 11.6196 5.4873 11.5376L10.0537 6.53369C10.2178 6.36963 10.2178 6.09619 10.0537 5.93213C9.88965 5.76807 9.61621 5.76807 9.45215 5.93213L3.90137 10.854L1.46777 9.65088C1.19434 9.51416 1.00293 9.21338 1.00293 8.88525C0.975586 8.58447 1.13965 8.28369 1.44043 8.11963L13.6904 1.11963C13.9639 0.955566 14.3467 0.955566 14.6201 1.14697Z"/>
</mask>
<path d="M14.9756 1.99463L13.9891 1.83022L13.9872 1.84257L14.9756 1.99463ZM13.2256 13.3696L12.2372 13.2176L12.2332 13.2438L12.2305 13.2701L13.2256 13.3696ZM12.7881 13.9985L12.3024 13.1244L12.2799 13.1369L12.2581 13.1505L12.7881 13.9985ZM12.0225 14.0532L12.4286 13.1394L12.4193 13.1353L12.4098 13.1313L12.0225 14.0532ZM8.76855 12.686L9.15592 11.7641L8.51286 11.4939L8.03717 12.0041L8.76855 12.686ZM6.88184 14.7095L6.15045 14.0275L6.14444 14.034L6.13854 14.0405L6.88184 14.7095ZM5.9248 14.9282L6.30942 14.0051L6.27569 13.9911L6.24103 13.9795L5.9248 14.9282ZM5.4873 11.5376L6.19441 12.2447L6.21057 12.2285L6.22597 12.2117L5.4873 11.5376ZM10.0537 6.53369L9.3466 5.82658L9.33045 5.84274L9.31505 5.85961L10.0537 6.53369ZM9.45215 5.93213L10.1156 6.68035L10.138 6.66045L10.1593 6.63924L9.45215 5.93213ZM3.90137 10.854L3.45819 11.7504L4.06136 12.0486L4.56482 11.6022L3.90137 10.854ZM1.46777 9.65088L1.02056 10.5453L1.02459 10.5473L1.46777 9.65088ZM1.00293 8.88525H2.00293V8.83989L1.99882 8.79472L1.00293 8.88525ZM1.44043 8.11963L1.91928 8.99752L1.92797 8.99278L1.93657 8.98787L1.44043 8.11963ZM13.6904 1.11963L14.1866 1.98787L14.1958 1.98259L14.2049 1.97712L13.6904 1.11963ZM14.6201 1.14697L14.0467 1.9662C14.0031 1.93574 13.9808 1.88057 13.9892 1.83023L14.9756 1.99463L15.962 2.15903C16.0797 1.45244 15.784 0.741017 15.1936 0.327741L14.6201 1.14697ZM14.9756 1.99463L13.9872 1.84257L12.2372 13.2176L13.2256 13.3696L14.214 13.5217L15.964 2.14669L14.9756 1.99463ZM13.2256 13.3696L12.2305 13.2701C12.2345 13.2306 12.2503 13.1891 12.2734 13.1566C12.2944 13.1269 12.3105 13.1199 12.3024 13.1244L12.7881 13.9985L13.2737 14.8727C13.758 14.6036 14.1555 14.12 14.2206 13.4691L13.2256 13.3696ZM12.7881 13.9985L12.2581 13.1505C12.295 13.1275 12.3227 13.1224 12.3388 13.1211C12.3557 13.1198 12.3868 13.1208 12.4286 13.1394L12.0225 14.0532L11.6163 14.967C12.175 15.2154 12.8261 15.154 13.3181 14.8465L12.7881 13.9985ZM12.0225 14.0532L12.4098 13.1313L9.15592 11.7641L8.76855 12.686L8.38119 13.608L11.6351 14.9751L12.0225 14.0532ZM8.76855 12.686L8.03717 12.0041L6.15045 14.0275L6.88184 14.7095L7.61322 15.3914L9.49994 13.368L8.76855 12.686ZM6.88184 14.7095L6.13854 14.0405C6.17723 13.9975 6.2469 13.9791 6.30942 14.0051L5.9248 14.9282L5.54019 15.8513C6.25896 16.1508 7.09426 15.9683 7.62513 15.3784L6.88184 14.7095ZM5.9248 14.9282L6.24103 13.9795C6.30296 14.0002 6.34181 14.0381 6.36037 14.0659C6.37822 14.0927 6.37793 14.1093 6.37793 14.1079H5.37793H4.37793C4.37793 14.8596 4.81662 15.6129 5.60858 15.8769L5.9248 14.9282ZM5.37793 14.1079H6.37793V11.8384H5.37793H4.37793V14.1079H5.37793ZM5.37793 11.8384H6.37793C6.37793 11.8831 6.36606 12.0731 6.19441 12.2447L5.4873 11.5376L4.7802 10.8305C4.44449 11.1662 4.37793 11.5749 4.37793 11.8384H5.37793ZM5.4873 11.5376L6.22597 12.2117L10.7924 7.20777L10.0537 6.53369L9.31505 5.85961L4.74864 10.8635L5.4873 11.5376ZM10.0537 6.53369L10.7608 7.2408C11.3154 6.68621 11.3154 5.77961 10.7608 5.22502L10.0537 5.93213L9.3466 6.63924C9.12014 6.41277 9.12014 6.05305 9.3466 5.82658L10.0537 6.53369ZM10.0537 5.93213L10.7608 5.22502C10.2062 4.67043 9.29963 4.67043 8.74504 5.22502L9.45215 5.93213L10.1593 6.63924C9.93279 6.8657 9.57307 6.8657 9.3466 6.63924L10.0537 5.93213ZM9.45215 5.93213L8.7887 5.18391L3.23792 10.1058L3.90137 10.854L4.56482 11.6022L10.1156 6.68035L9.45215 5.93213ZM3.90137 10.854L4.34455 9.95757L1.91095 8.75445L1.46777 9.65088L1.02459 10.5473L3.45819 11.7504L3.90137 10.854ZM1.46777 9.65088L1.91499 8.75645C1.95561 8.77676 1.97527 8.80079 1.98447 8.81575C1.99436 8.83182 2.00293 8.85482 2.00293 8.88525H1.00293H0.00292969C0.00292969 9.58914 0.405652 10.2379 1.02056 10.5453L1.46777 9.65088ZM1.00293 8.88525L1.99882 8.79472C2.01086 8.92717 1.9354 8.98873 1.91928 8.99752L1.44043 8.11963L0.961578 7.24173C0.343899 7.57865 -0.0596918 8.24178 0.00703651 8.97579L1.00293 8.88525ZM1.44043 8.11963L1.93657 8.98787L14.1866 1.98787L13.6904 1.11963L13.1943 0.251386L0.944291 7.25139L1.44043 8.11963ZM13.6904 1.11963L14.2049 1.97712C14.1688 1.99879 14.145 2 14.1344 1.99978C14.1224 1.99953 14.0893 1.99606 14.0467 1.9662L14.6201 1.14697L15.1936 0.327741C14.5784 -0.102905 13.7681 -0.0931416 13.1759 0.262136L13.6904 1.11963Z" fill="#262626" mask="url(#path-1-outside-1_88_3057)"/>
</svg>
