<svg width="24" height="24" viewBox="0 0 24 24" fill="none" xmlns="http://www.w3.org/2000/svg">
<path d="M17.9883 7.99483C19.644 7.99483 20.9863 6.65257 20.9863 4.9968C20.9863 3.34104 19.644 1.99878 17.9883 1.99878C16.3325 1.99878 14.9902 3.34104 14.9902 4.9968C14.9902 6.65257 16.3325 7.99483 17.9883 7.99483Z" stroke="#A1A1AA" stroke-width="1.99868" stroke-linecap="round" stroke-linejoin="round"/>
<path d="M5.99607 14.9902C7.65184 14.9902 8.9941 13.6479 8.9941 11.9922C8.9941 10.3364 7.65184 8.99414 5.99607 8.99414C4.34031 8.99414 2.99805 10.3364 2.99805 11.9922C2.99805 13.6479 4.34031 14.9902 5.99607 14.9902Z" stroke="#A1A1AA" stroke-width="1.99868" stroke-linecap="round" stroke-linejoin="round"/>
<path d="M17.9883 21.9856C19.644 21.9856 20.9863 20.6433 20.9863 18.9875C20.9863 17.3318 19.644 15.9895 17.9883 15.9895C16.3325 15.9895 14.9902 17.3318 14.9902 18.9875C14.9902 20.6433 16.3325 21.9856 17.9883 21.9856Z" stroke="#A1A1AA" stroke-width="1.99868" stroke-linecap="round" stroke-linejoin="round"/>
<path d="M8.58447 13.5012L15.41 17.4786" stroke="#A1A1AA" stroke-width="1.99868" stroke-linecap="round" stroke-linejoin="round"/>
<path d="M15.4 6.50562L8.58447 10.483" stroke="#A1A1AA" stroke-width="1.99868" stroke-linecap="round" stroke-linejoin="round"/>
</svg>
