<svg width="16" height="16" viewBox="0 0 16 16" fill="none" xmlns="http://www.w3.org/2000/svg">
<path d="M13.3246 8.66081C13.3246 11.9919 10.9929 13.6575 8.22136 14.6235C8.07623 14.6727 7.91858 14.6703 7.77498 14.6169C4.99683 13.6575 2.66504 11.9919 2.66504 8.66081V3.99723C2.66504 3.82054 2.73523 3.65108 2.86017 3.52614C2.98511 3.4012 3.15457 3.33101 3.33126 3.33101C4.66371 3.33101 6.32928 2.53154 7.48851 1.51887C7.62965 1.39829 7.8092 1.33203 7.99484 1.33203C8.18048 1.33203 8.36003 1.39829 8.50117 1.51887C9.66706 2.5382 11.326 3.33101 12.6584 3.33101C12.8351 3.33101 13.0046 3.4012 13.1295 3.52614C13.2544 3.65108 13.3246 3.82054 13.3246 3.99723V8.66081Z" stroke="#22C55E" stroke-width="1.33245" stroke-linecap="round" stroke-linejoin="round"/>
</svg>
