<svg width="16" height="16" viewBox="0 0 16 16" fill="none" xmlns="http://www.w3.org/2000/svg">
<path d="M7.99484 8.66082C8.36278 8.66082 8.66106 8.36254 8.66106 7.99459C8.66106 7.62665 8.36278 7.32837 7.99484 7.32837C7.62689 7.32837 7.32861 7.62665 7.32861 7.99459C7.32861 8.36254 7.62689 8.66082 7.99484 8.66082Z" stroke="#A1A1AA" stroke-width="1.33245" stroke-linecap="round" stroke-linejoin="round"/>
<path d="M12.6584 8.66082C13.0264 8.66082 13.3246 8.36254 13.3246 7.99459C13.3246 7.62665 13.0264 7.32837 12.6584 7.32837C12.2905 7.32837 11.9922 7.62665 11.9922 7.99459C11.9922 8.36254 12.2905 8.66082 12.6584 8.66082Z" stroke="#A1A1AA" stroke-width="1.33245" stroke-linecap="round" stroke-linejoin="round"/>
<path d="M3.33126 8.66082C3.69921 8.66082 3.99749 8.36254 3.99749 7.99459C3.99749 7.62665 3.69921 7.32837 3.33126 7.32837C2.96332 7.32837 2.66504 7.62665 2.66504 7.99459C2.66504 8.36254 2.96332 8.66082 3.33126 8.66082Z" stroke="#A1A1AA" stroke-width="1.33245" stroke-linecap="round" stroke-linejoin="round"/>
</svg>
