<svg width="20" height="20" viewBox="0 0 20 20" fill="none" xmlns="http://www.w3.org/2000/svg">
<path d="M0 9.9934C0 4.4742 4.4742 0 9.9934 0C15.5126 0 19.9868 4.4742 19.9868 9.9934C19.9868 15.5126 15.5126 19.9868 9.9934 19.9868C4.4742 19.9868 0 15.5126 0 9.9934Z" fill="#22C55E"/>
<g clip-path="url(#clip0_275_2041)">
<path d="M14.8909 8.99419C15.1191 10.1141 14.9564 11.2784 14.4301 12.2929C13.9038 13.3074 13.0455 14.1108 11.9985 14.5692C10.9515 15.0275 9.77904 15.113 8.6766 14.8115C7.57416 14.51 6.60841 13.8397 5.94039 12.9123C5.27238 11.9849 4.94247 10.8566 5.0057 9.7154C5.06893 8.57423 5.52147 7.48922 6.28785 6.64132C7.05423 5.79342 8.08813 5.23388 9.21713 5.05601C10.3461 4.87814 11.502 5.09269 12.4919 5.66388" stroke="white" stroke-width="0.999342" stroke-linecap="round" stroke-linejoin="round"/>
<path d="M8.49463 9.49379L9.99364 10.9928L14.9903 5.99609" stroke="white" stroke-width="0.999342" stroke-linecap="round" stroke-linejoin="round"/>
</g>
<defs>
<clipPath id="clip0_275_2041">
<rect width="11.9921" height="11.9921" fill="white" transform="translate(3.99756 3.99707)"/>
</clipPath>
</defs>
</svg>
